<svg aria-hidden="true" xmlns="http://www.w3.org/2000/svg" xmlns:xlink="http://www.w3.org/1999/xlink"><symbol viewBox="0 0 16 31" id="fb" xmlns="http://www.w3.org/2000/svg">
<path d="M10.4168 17.6873H14.0627L15.521 11.854H10.4168V8.93734C10.4168 7.43525 10.4168 6.02067 13.3335 6.02067H15.521V1.12067C15.0456 1.05796 13.2504 0.916504 11.3545 0.916504C7.39516 0.916504 4.5835 3.33296 4.5835 7.77067V11.854H0.208496V17.6873H4.5835V30.0832H10.4168V17.6873Z" fill-opacity="0.7"/>
</symbol><symbol viewBox="0 0 27 27" id="inst" xmlns="http://www.w3.org/2000/svg">
<path d="M13.4998 8.76025C12.2428 8.76025 11.0373 9.2596 10.1484 10.1484C9.2596 11.0373 8.76025 12.2428 8.76025 13.4998C8.76025 14.7569 9.2596 15.9624 10.1484 16.8512C11.0373 17.7401 12.2428 18.2394 13.4998 18.2394C14.7569 18.2394 15.9624 17.7401 16.8512 16.8512C17.7401 15.9624 18.2394 14.7569 18.2394 13.4998C18.2394 12.2428 17.7401 11.0373 16.8512 10.1484C15.9624 9.2596 14.7569 8.76025 13.4998 8.76025Z" fill-opacity="0.7"/>
<path fill-rule="evenodd" clip-rule="evenodd" d="M5.87294 0.494664C10.9421 -0.0672316 16.0579 -0.0672316 21.1271 0.494664C23.8965 0.80383 26.1292 2.98404 26.4544 5.76362C27.0555 10.9037 27.0555 16.0964 26.4544 21.2365C26.1292 24.0161 23.8965 26.1963 21.1286 26.507C16.0589 27.069 10.9426 27.069 5.87294 26.507C3.10357 26.1963 0.870858 24.0161 0.545649 21.238C-0.055581 16.0974 -0.055581 10.9042 0.545649 5.76362C0.870858 2.98404 3.10357 0.80383 5.87294 0.494664ZM20.7917 4.75008C20.4049 4.75008 20.034 4.90373 19.7605 5.17722C19.487 5.45071 19.3334 5.82164 19.3334 6.20841C19.3334 6.59519 19.487 6.96612 19.7605 7.23961C20.034 7.5131 20.4049 7.66675 20.7917 7.66675C21.1785 7.66675 21.5494 7.5131 21.8229 7.23961C22.0964 6.96612 22.25 6.59519 22.25 6.20841C22.25 5.82164 22.0964 5.45071 21.8229 5.17722C21.5494 4.90373 21.1785 4.75008 20.7917 4.75008ZM6.57294 13.5001C6.57294 11.6629 7.30276 9.90097 8.60184 8.60189C9.90092 7.30281 11.6628 6.573 13.5 6.573C15.3372 6.573 17.0991 7.30281 18.3982 8.60189C19.6973 9.90097 20.4271 11.6629 20.4271 13.5001C20.4271 15.3373 19.6973 17.0992 18.3982 18.3983C17.0991 19.6973 15.3372 20.4272 13.5 20.4272C11.6628 20.4272 9.90092 19.6973 8.60184 18.3983C7.30276 17.0992 6.57294 15.3373 6.57294 13.5001Z" fill-opacity="0.7"/>
</symbol><symbol viewBox="0 0 35 42" id="play" xmlns="http://www.w3.org/2000/svg">
<path d="M34.875 21C34.8763 21.5305 34.7403 22.0523 34.4802 22.5147C34.22 22.9771 33.8447 23.3643 33.3906 23.6387L5.25 40.8535C4.77556 41.144 4.23216 41.3026 3.67593 41.3129C3.1197 41.3232 2.57081 41.1849 2.08594 40.9121C1.60568 40.6436 1.20562 40.252 0.926883 39.7776C0.648147 39.3032 0.500802 38.7631 0.5 38.2129V3.78711C0.500802 3.23688 0.648147 2.6968 0.926883 2.2224C1.20562 1.748 1.60568 1.35641 2.08594 1.08789C2.57081 0.815132 3.1197 0.676759 3.67593 0.687059C4.23216 0.69736 4.77556 0.855961 5.25 1.14648L33.3906 18.3613C33.8447 18.6357 34.22 19.0229 34.4802 19.4853C34.7403 19.9476 34.8763 20.4695 34.875 21Z"/>
</symbol><symbol viewBox="0 0 24 24" id="plus" xmlns="http://www.w3.org/2000/svg">
<path d="M22.0002 13.6634H13.6668V21.9967C13.6668 22.4388 13.4912 22.8627 13.1787 23.1753C12.8661 23.4878 12.4422 23.6634 12.0002 23.6634C11.5581 23.6634 11.1342 23.4878 10.8217 23.1753C10.5091 22.8627 10.3335 22.4388 10.3335 21.9967V13.6634H2.00016C1.55814 13.6634 1.13421 13.4878 0.821652 13.1753C0.509091 12.8627 0.333496 12.4388 0.333496 11.9967C0.333496 11.5547 0.509091 11.1308 0.821652 10.8182C1.13421 10.5057 1.55814 10.3301 2.00016 10.3301H10.3335V1.99674C10.3335 1.55472 10.5091 1.13079 10.8217 0.818233C11.1342 0.505672 11.5581 0.330078 12.0002 0.330078C12.4422 0.330078 12.8661 0.505672 13.1787 0.818233C13.4912 1.13079 13.6668 1.55472 13.6668 1.99674V10.3301H22.0002C22.4422 10.3301 22.8661 10.5057 23.1787 10.8182C23.4912 11.1308 23.6668 11.5547 23.6668 11.9967C23.6668 12.4388 23.4912 12.8627 23.1787 13.1753C22.8661 13.4878 22.4422 13.6634 22.0002 13.6634Z" fill-opacity="0.9"/>
</symbol><symbol viewBox="0 0 26 25" id="star" xmlns="http://www.w3.org/2000/svg">
<path d="M25.5 9.55L16.5125 8.775L13 0.5L9.4875 8.7875L0.5 9.55L7.325 15.4625L5.275 24.25L13 19.5875L20.725 24.25L18.6875 15.4625L25.5 9.55ZM13 17.25L8.3 20.0875L9.55 14.7375L5.4 11.1375L10.875 10.6625L13 5.625L15.1375 10.675L20.6125 11.15L16.4625 14.75L17.7125 20.1L13 17.25Z"/>
<defs>
<linearGradient id="fpaint0_linear_7_260" x1="-1.08133" y1="0.5" x2="26.4789" y2="0.5" gradientUnits="userSpaceOnUse">
<stop stop-color="#FF4300"/>
<stop offset="1" stop-color="#FF6400"/>
</linearGradient>
</defs>
</symbol><symbol viewBox="0 0 26 25" id="star-o" xmlns="http://www.w3.org/2000/svg">
<path d="M25.5 9.55L16.5125 8.775L13 0.5L9.4875 8.7875L0.5 9.55L7.325 15.4625L5.275 24.25L13 19.5875L20.725 24.25L18.6875 15.4625L25.5 9.55ZM13 17.25L8.3 20.0875L9.55 14.7375L5.4 11.1375L10.875 10.6625L13 5.625L15.1375 10.675L20.6125 11.15L16.4625 14.75L17.7125 20.1L13 17.25Z"/>
<defs>
<linearGradient id="epaint0_linear_361_24" x1="-1.08133" y1="0.5" x2="26.4789" y2="0.5" gradientUnits="userSpaceOnUse">
<stop stop-color="#FF4300"/>
<stop offset="1" stop-color="#FF6400"/>
</linearGradient>
</defs>
</symbol><symbol viewBox="0 0 25 22" id="students-o" xmlns="http://www.w3.org/2000/svg">
<path fill-rule="evenodd" clip-rule="evenodd" d="M12.4997 1.83331C10.6127 1.83331 9.08301 3.36301 9.08301 5.24998C9.08301 7.13695 10.6127 8.66665 12.4997 8.66665C14.3866 8.66665 15.9163 7.13695 15.9163 5.24998C15.9163 3.36301 14.3866 1.83331 12.4997 1.83331ZM7.58301 5.24998C7.58301 2.53458 9.78427 0.333313 12.4997 0.333313C15.2151 0.333313 17.4163 2.53458 17.4163 5.24998C17.4163 7.96538 15.2151 10.1666 12.4997 10.1666C9.78427 10.1666 7.58301 7.96538 7.58301 5.24998Z"/>
<path opacity="0.5" fill-rule="evenodd" clip-rule="evenodd" d="M6.25 3.91663C4.8045 3.91663 3.875 4.86959 3.875 5.77079C3.875 6.672 4.8045 7.62496 6.25 7.62496C6.66421 7.62496 7 7.96075 7 8.37496C7 8.78917 6.66421 9.12496 6.25 9.12496C4.24342 9.12496 2.375 7.74459 2.375 5.77079C2.375 3.797 4.24342 2.41663 6.25 2.41663C6.66421 2.41663 7 2.75241 7 3.16663C7 3.58084 6.66421 3.91663 6.25 3.91663ZM18 3.16663C18 2.75241 18.3358 2.41663 18.75 2.41663C20.7566 2.41663 22.625 3.797 22.625 5.77079C22.625 7.74459 20.7566 9.12496 18.75 9.12496C18.3358 9.12496 18 8.78917 18 8.37496C18 7.96075 18.3358 7.62496 18.75 7.62496C20.1955 7.62496 21.125 6.672 21.125 5.77079C21.125 4.86959 20.1955 3.91663 18.75 3.91663C18.3358 3.91663 18 3.58084 18 3.16663Z"/>
<path fill-rule="evenodd" clip-rule="evenodd" d="M8.49661 14.3861C7.49967 15.0507 7 15.8865 7 16.7083C7 17.5301 7.49967 18.3659 8.49661 19.0305C9.4883 19.6917 10.9015 20.125 12.5 20.125C14.0985 20.125 15.5117 19.6917 16.5034 19.0305C17.5003 18.3659 18 17.5301 18 16.7083C18 15.8865 17.5003 15.0507 16.5034 14.3861C15.5117 13.7249 14.0985 13.2916 12.5 13.2916C10.9015 13.2916 9.4883 13.7249 8.49661 14.3861ZM7.66456 13.138C8.93492 12.2911 10.6467 11.7916 12.5 11.7916C14.3533 11.7916 16.0651 12.2911 17.3354 13.138C18.6006 13.9814 19.5 15.2289 19.5 16.7083C19.5 18.1877 18.6006 19.4352 17.3354 20.2786C16.0651 21.1255 14.3533 21.625 12.5 21.625C10.6467 21.625 8.93492 21.1255 7.66456 20.2786C6.39944 19.4352 5.5 18.1877 5.5 16.7083C5.5 15.2289 6.39944 13.9814 7.66456 13.138Z"/>
<path opacity="0.5" fill-rule="evenodd" clip-rule="evenodd" d="M4.89906 13.4225C4.98787 13.8271 4.73188 14.227 4.3273 14.3158C3.49844 14.4978 2.83389 14.8104 2.39378 15.1705C1.95309 15.5311 1.7915 15.8875 1.7915 16.1875C1.7915 16.4874 1.95309 16.8438 2.39378 17.2044C2.83389 17.5645 3.49844 17.8771 4.3273 18.0591C4.73188 18.1479 4.98787 18.5478 4.89906 18.9524C4.81026 19.357 4.41029 19.613 4.00571 19.5242C3.00749 19.3051 2.10953 18.9099 1.44392 18.3653C0.77888 17.8212 0.291504 17.076 0.291504 16.1875C0.291504 15.2989 0.77888 14.5537 1.44392 14.0096C2.10953 13.465 3.00749 13.0698 4.00571 12.8507C4.41029 12.7619 4.81026 13.0179 4.89906 13.4225ZM20.1006 13.4225C20.1894 13.0179 20.5894 12.7619 20.994 12.8507C21.9922 13.0698 22.8901 13.465 23.5558 14.0096C24.2208 14.5537 24.7082 15.2989 24.7082 16.1875C24.7082 17.076 24.2208 17.8212 23.5558 18.3653C22.8901 18.9099 21.9922 19.3051 20.994 19.5242C20.5894 19.613 20.1894 19.357 20.1006 18.9524C20.0118 18.5478 20.2678 18.1479 20.6724 18.0591C21.5012 17.8771 22.1658 17.5645 22.6059 17.2044C23.0466 16.8438 23.2082 16.4874 23.2082 16.1875C23.2082 15.8875 23.0466 15.5311 22.6059 15.1705C22.1658 14.8104 21.5012 14.4978 20.6724 14.3158C20.2678 14.227 20.0118 13.8271 20.1006 13.4225Z"/>
</symbol><symbol viewBox="0 0 23 27" id="tik-tok" xmlns="http://www.w3.org/2000/svg">
<path d="M18.2086 4.4875C17.2117 3.34945 16.6623 1.88792 16.6627 0.375H12.1565V18.4583C12.1217 19.4369 11.7086 20.3638 11.0041 21.0439C10.2995 21.7239 9.35859 22.104 8.37939 22.1042C6.30856 22.1042 4.58773 20.4125 4.58773 18.3125C4.58773 15.8042 7.00856 13.9229 9.50231 14.6958V10.0875C4.47106 9.41667 0.0668945 13.325 0.0668945 18.3125C0.0668945 23.1688 4.0919 26.625 8.36481 26.625C12.944 26.625 16.6627 22.9063 16.6627 18.3125V9.13958C18.49 10.4519 20.6839 11.1559 22.9336 11.1521V6.64583C22.9336 6.64583 20.1919 6.77708 18.2086 4.4875Z" fill-opacity="0.7"/>
</symbol><symbol viewBox="0 0 21 21" id="time-o" xmlns="http://www.w3.org/2000/svg">
<path fill-rule="evenodd" clip-rule="evenodd" d="M10.746 0.125366C16.3624 0.256194 20.8751 4.85232 20.8751 10.5C20.8751 16.2346 16.2393 20.8858 10.4982 20.875C4.75302 20.8642 0.0615477 16.1436 0.125151 10.3917C0.151136 7.87663 1.09051 5.4568 2.76827 3.58297C3.13667 3.17151 3.76888 3.13661 4.18033 3.50502C4.59179 3.87342 4.62669 4.50562 4.25829 4.91708C2.9041 6.42952 2.14593 8.38268 2.12504 10.4127L2.12503 10.4135C2.07362 15.0471 5.86155 18.8663 10.502 18.875C15.1319 18.8837 18.8751 15.1336 18.8751 10.5C18.8751 6.21254 15.6532 2.67589 11.5001 2.18157V5.4219C11.5001 5.97419 11.0524 6.4219 10.5001 6.4219C9.94781 6.4219 9.50009 5.97419 9.50009 5.4219V1.33935M11.5001 1.3356C11.5001 1.33653 11.5001 1.33747 11.5001 1.33841L11.5001 1.3356Z" fill-opacity="0.9"/>
<path d="M9.39568 11.605L5.53826 6.08746C5.4849 6.01101 5.46014 5.91822 5.46833 5.82535C5.47653 5.73248 5.51714 5.64545 5.58307 5.57953C5.64899 5.5136 5.73602 5.47299 5.82889 5.46479C5.92176 5.4566 6.01455 5.48136 6.091 5.53472L11.6086 9.39214C11.947 9.63589 12.1759 10.0031 12.2457 10.4143C12.3155 10.8254 12.2206 11.2476 11.9816 11.5894C11.7425 11.9311 11.3786 12.1651 10.9684 12.2405C10.5582 12.316 10.1348 12.227 9.78973 11.9927C9.63716 11.887 9.50387 11.7559 9.39568 11.605Z" fill-opacity="0.9"/>
</symbol><symbol viewBox="0 0 31 26" id="tw" xmlns="http://www.w3.org/2000/svg">
<path d="M30.7539 3.75016C29.631 4.26058 28.4206 4.596 27.1664 4.75641C28.4498 3.9835 29.4414 2.7585 29.9081 1.28558C28.6977 2.01475 27.356 2.52516 25.9414 2.81683C24.7894 1.56266 23.1706 0.833496 21.3331 0.833496C17.906 0.833496 15.106 3.6335 15.106 7.08975C15.106 7.58558 15.1644 8.06683 15.2664 8.51891C10.0748 8.25641 5.45186 5.76266 2.37477 1.98558C1.83519 2.90433 1.52894 3.9835 1.52894 5.121C1.52894 7.29391 2.62269 9.21891 4.31436 10.3127C3.27894 10.3127 2.31644 10.021 1.47061 9.5835V9.62724C1.47061 12.6606 3.62894 15.1981 6.48727 15.7668C5.56958 16.018 4.60616 16.0529 3.67269 15.8689C4.06878 17.1121 4.84451 18.1999 5.89084 18.9794C6.93716 19.7589 8.20147 20.191 9.50602 20.2147C7.29465 21.9654 4.55352 22.9117 1.73311 22.8981C1.23727 22.8981 0.741439 22.8689 0.245605 22.8106C3.01644 24.5897 6.31227 25.6252 9.84144 25.6252C21.3331 25.6252 27.6477 16.0877 27.6477 7.81891C27.6477 7.54183 27.6477 7.27933 27.6331 7.00224C28.8581 6.12724 29.9081 5.01891 30.7539 3.75016Z" fill-opacity="0.7"/>
</symbol></svg>