<!DOCTYPE svg PUBLIC "-//W3C//DTD SVG 1.1//EN" "http://www.w3.org/Graphics/SVG/1.1/DTD/svg11.dtd"><svg aria-hidden="true" xmlns="http://www.w3.org/2000/svg" xmlns:xlink="http://www.w3.org/1999/xlink"><symbol id="click-icon" viewBox="0 0 297 297" xml:space="preserve" xmlns="http://www.w3.org/2000/svg">
<path d="M250.685,297c5.345-17.25,22.776-77.344,22.776-99.488v-76.899c0-10.362-8.324-18.793-18.555-18.793  c-10.228,0-18.552,8.431-18.552,18.793v32.79c0,1.927-1.566,3.493-3.492,3.493c-1.927,0-3.492-1.566-3.492-3.493v-51.243  c0-10.359-8.326-18.789-18.558-18.789c-10.23,0-18.553,8.43-18.553,18.789v36.533c0,1.927-1.567,3.492-3.492,3.492  c-1.926,0-3.491-1.566-3.491-3.492V87.455c0-10.358-8.324-18.784-18.555-18.784c-10.229,0-18.552,8.426-18.552,18.784v36.542  c0,1.924-1.568,3.492-3.493,3.492c-1.927,0-3.492-1.568-3.492-3.492V18.788C141.185,8.427,132.859,0,122.627,0  c-10.231,0-18.556,8.427-18.556,18.788V181.7c0,1.449-0.909,2.762-2.266,3.271c-1.345,0.504-2.918,0.103-3.855-0.974l-43.461-49.715  l-0.51-0.529c-3.483-3.296-8.053-5.124-12.863-5.151h-0.124c-5.003,0.058-9.629,1.962-13.025,5.366  c-4.28,4.283-7.634,12.468,0.719,27.156c12.684,22.277,26.547,43.406,38.829,62.122c9.131,13.92,17.757,27.066,24.188,38.154  c4.111,7.096,12.687,25.727,17.429,35.599H250.685z"/>
</symbol><symbol id="fb" viewBox="0 0 24 24" xml:space="preserve" xmlns="http://www.w3.org/2000/svg">
<g>
	<path d="M24,12.073c0,5.989-4.394,10.954-10.13,11.855v-8.363h2.789l0.531-3.46H13.87V9.86c0-0.947,0.464-1.869,1.95-1.869h1.509   V5.045c0,0-1.37-0.234-2.679-0.234c-2.734,0-4.52,1.657-4.52,4.656v2.637H7.091v3.46h3.039v8.363C4.395,23.025,0,18.061,0,12.073   c0-6.627,5.373-12,12-12S24,5.445,24,12.073z"/>
</g>















</symbol><symbol id="github" viewBox="0 0 24 24" xml:space="preserve" xmlns="http://www.w3.org/2000/svg">
<g>
	<path d="M12,0.296c-6.627,0-12,5.372-12,12c0,5.302,3.438,9.8,8.206,11.387   c0.6,0.111,0.82-0.26,0.82-0.577c0-0.286-0.011-1.231-0.016-2.234c-3.338,0.726-4.043-1.416-4.043-1.416   C4.421,18.069,3.635,17.7,3.635,17.7c-1.089-0.745,0.082-0.729,0.082-0.729c1.205,0.085,1.839,1.237,1.839,1.237   c1.07,1.834,2.807,1.304,3.492,0.997C9.156,18.429,9.467,17.9,9.81,17.6c-2.665-0.303-5.467-1.332-5.467-5.93   c0-1.31,0.469-2.381,1.237-3.221C5.455,8.146,5.044,6.926,5.696,5.273c0,0,1.008-0.322,3.301,1.23   C9.954,6.237,10.98,6.104,12,6.099c1.02,0.005,2.047,0.138,3.006,0.404c2.29-1.553,3.297-1.23,3.297-1.23   c0.653,1.653,0.242,2.873,0.118,3.176c0.769,0.84,1.235,1.911,1.235,3.221c0,4.609-2.807,5.624-5.479,5.921   c0.43,0.372,0.814,1.103,0.814,2.222c0,1.606-0.014,2.898-0.014,3.293c0,0.319,0.216,0.694,0.824,0.576   c4.766-1.589,8.2-6.085,8.2-11.385C24,5.669,18.627,0.296,12,0.296z"/>
	<path d="M4.545,17.526c-0.026,0.06-0.12,0.078-0.206,0.037c-0.087-0.039-0.136-0.121-0.108-0.18   c0.026-0.061,0.12-0.078,0.207-0.037C4.525,17.384,4.575,17.466,4.545,17.526L4.545,17.526z"/>
	<path d="M5.031,18.068c-0.057,0.053-0.169,0.028-0.245-0.055c-0.079-0.084-0.093-0.196-0.035-0.249   c0.059-0.053,0.167-0.028,0.246,0.056C5.076,17.903,5.091,18.014,5.031,18.068L5.031,18.068z"/>
	<path d="M5.504,18.759c-0.074,0.051-0.194,0.003-0.268-0.103c-0.074-0.107-0.074-0.235,0.002-0.286   c0.074-0.051,0.193-0.005,0.268,0.101C5.579,18.579,5.579,18.707,5.504,18.759L5.504,18.759z"/>
	<path d="M6.152,19.427c-0.066,0.073-0.206,0.053-0.308-0.046c-0.105-0.097-0.134-0.234-0.068-0.307   c0.067-0.073,0.208-0.052,0.311,0.046C6.191,19.217,6.222,19.355,6.152,19.427L6.152,19.427z"/>
	<path d="M7.047,19.814c-0.029,0.094-0.164,0.137-0.3,0.097C6.611,19.87,6.522,19.76,6.55,19.665   c0.028-0.095,0.164-0.139,0.301-0.096C6.986,19.609,7.075,19.719,7.047,19.814L7.047,19.814z"/>
	<path d="M8.029,19.886c0.003,0.099-0.112,0.181-0.255,0.183c-0.143,0.003-0.26-0.077-0.261-0.174c0-0.1,0.113-0.181,0.256-0.184   C7.912,19.708,8.029,19.788,8.029,19.886L8.029,19.886z"/>
	<path d="M8.943,19.731c0.017,0.096-0.082,0.196-0.224,0.222c-0.139,0.026-0.268-0.034-0.286-0.13   c-0.017-0.099,0.084-0.198,0.223-0.224C8.797,19.574,8.925,19.632,8.943,19.731L8.943,19.731z"/>
</g>















</symbol><symbol viewBox="0 0 286 620" id="gulp-white-logo" xmlns="http://www.w3.org/2000/svg">
  <path fill-rule="evenodd" d="M262.6 341.06L282.87 159s-19.2 15.9-141.42 15.9C19.22 174.9 2 159.33 2 159.33L18.06 314.1c8.6-24.47 29.1-74.25 61.45-72.58 14.7.75 34.3 29.04 17.5 30-7.1.4-7.8-14.12-16.2-16.25-6.07-1.54-14.53 3.4-20 8.75-10.9 10.67-34.35 52.76-31.25 73.75 3.96 26.75 36.93-9.3 42.5-20 3.94-7.54 6.6-29.88 15.2-27.54 8.58 2.34-.76 25.4-7 45.78-7 22.9-10.67 47.08-19.44 44.3-8.77-2.8 5.5-32.32 5-37.5-8.25 7.6-23.47 26.9-42.93 17.3l10.3 99.34s26.83 21.2 107.65 21.2c80.8 0 108.65-20.86 108.65-20.86l11.43-102.65c-11.2 10.1-41.8 26.2-43.82 6.8-1.66-16.05 35.16-39.32 25.7-40.1-20.33 1.2-30.46 23.87-40.7 47.6-3.74 8.7-16.57 45.84-25 41.27-8.4-4.58 10.92-35.1 16.33-53.2-6.25 4.56-29.17 22.36-35.07 5.7-9.5 8.05-29.8 12.42-27.5-8.76-5.04 8.96-16.4 21.45-30 16.26-17.86-6.82 10.37-63.75 17.4-60.88 7 2.87-1.43 15.84-3.64 20.88-4.86 11.08-10.47 25.02-6.7 27.87 6.4 4.88 23.9-18.5 24.27-19 3.27-4.32 12.6-32.6 20.1-29.34 7.5 3.24-18.73 40.56-8.92 47.97 2 1.5 10.08-.92 15-6.25 3.2-3.44 2.1-11.07 12.7-36.4 10.64-25.33 20.1-56.87 27.4-54.47 7.27 2.4 1.27 18.6-1.34 24.63-12.24 28.34-33.45 75.14-23.45 71.6 10-3.55 15.2-3.75 25-15.2 9.8-11.47 9.34-30.35 15.87-29.94 6.54.4 5.44 6.44 3.86 11.05 6.42-7.34 30.45-22.83 36.25-7.5 6.9 18.16-34.36 44.38-24.07 43.05 9.55-1.26 24.78-10.66 32.2-19.64zm-83.7-211.42c-11.42-.42-23.4-.64-35.74-.64-78.6 0-142.3 8.96-142.3 20s63.7 20 142.28 20 142.28-8.96 142.28-20c0-8-33.43-14.9-81.72-18.1l9.85-38.93 70.47-74.15-.33-.28c.2-.13.42-.3.6-.5 1.8-2.05-.9-7.28-6-11.7-5.1-4.4-10.67-6.3-12.44-4.27-.24.27-.4.6-.48.95L190.8 81l-11.94 48.64zm41.52 470.54c0 10.52-34.7 19.05-77.5 19.05s-77.5-8.53-77.5-19.05l-6.64-98.14L40 470.86s37.52 15.3 101.3 15.3c63.8 0 101.9-15.6 101.9-15.6l-16.74 28.6-6.06 101.02zM196.9 154.44c2.4-.32 6.1-.77 6.1-3.67 0-1.7-1.44-2.7-3.08-3.2l-1.22 1.9c1 .25 1.6.56 1.6.88-.02 1.08-7.7 1.6-14.04 1.68-6.34.08-14.64-.67-14.63-1.76 0-.23.3-.45.85-.63l-1.23-1.93c-1.3.58-2.32 1.4-2.32 2.86 0 .76.33 1.87.95 2.43 2.3 2.1 8.05 2.17 16.16 2.13 8.1-.03 10.87-.65 10.87-.65z"/>
</symbol><symbol id="instagram" viewBox="0 0 24 24" xml:space="preserve" xmlns="http://www.w3.org/2000/svg">
<g>
	<path d="M12,2.162c3.204,0,3.584,0.012,4.849,0.07c1.308,0.06,2.655,0.358,3.608,1.311c0.962,0.962,1.251,2.296,1.311,3.608   c0.058,1.265,0.07,1.645,0.07,4.849c0,3.204-0.012,3.584-0.07,4.849c-0.059,1.301-0.364,2.661-1.311,3.608   c-0.962,0.962-2.295,1.251-3.608,1.311c-1.265,0.058-1.645,0.07-4.849,0.07s-3.584-0.012-4.849-0.07   c-1.291-0.059-2.669-0.371-3.608-1.311c-0.957-0.957-1.251-2.304-1.311-3.608c-0.058-1.265-0.07-1.645-0.07-4.849   c0-3.204,0.012-3.584,0.07-4.849c0.059-1.296,0.367-2.664,1.311-3.608c0.96-0.96,2.299-1.251,3.608-1.311   C8.416,2.174,8.796,2.162,12,2.162 M12,0C8.741,0,8.332,0.014,7.052,0.072C5.197,0.157,3.355,0.673,2.014,2.014   C0.668,3.36,0.157,5.198,0.072,7.052C0.014,8.332,0,8.741,0,12c0,3.259,0.014,3.668,0.072,4.948c0.085,1.853,0.603,3.7,1.942,5.038   c1.345,1.345,3.186,1.857,5.038,1.942C8.332,23.986,8.741,24,12,24c3.259,0,3.668-0.014,4.948-0.072   c1.854-0.085,3.698-0.602,5.038-1.942c1.347-1.347,1.857-3.184,1.942-5.038C23.986,15.668,24,15.259,24,12   c0-3.259-0.014-3.668-0.072-4.948c-0.085-1.855-0.602-3.698-1.942-5.038c-1.343-1.343-3.189-1.858-5.038-1.942   C15.668,0.014,15.259,0,12,0z"/>
	<path d="M12,5.838c-3.403,0-6.162,2.759-6.162,6.162c0,3.403,2.759,6.162,6.162,6.162s6.162-2.759,6.162-6.162   C18.162,8.597,15.403,5.838,12,5.838z M12,16c-2.209,0-4-1.791-4-4s1.791-4,4-4s4,1.791,4,4S14.209,16,12,16z"/>
	<circle cx="18.406" cy="5.594" r="1.44"/>
</g>















</symbol><symbol viewBox="0 0 24 24" id="linkedin" xmlns="http://www.w3.org/2000/svg">
<path d="M6.5 8C7.32843 8 8 7.32843 8 6.5C8 5.67157 7.32843 5 6.5 5C5.67157 5 5 5.67157 5 6.5C5 7.32843 5.67157 8 6.5 8Z"/>
<path d="M5 10C5 9.44772 5.44772 9 6 9H7C7.55228 9 8 9.44771 8 10V18C8 18.5523 7.55228 19 7 19H6C5.44772 19 5 18.5523 5 18V10Z"/>
<path d="M11 19H12C12.5523 19 13 18.5523 13 18V13.5C13 12 16 11 16 13V18.0004C16 18.5527 16.4477 19 17 19H18C18.5523 19 19 18.5523 19 18V12C19 10 17.5 9 15.5 9C13.5 9 13 10.5 13 10.5V10C13 9.44771 12.5523 9 12 9H11C10.4477 9 10 9.44772 10 10V18C10 18.5523 10.4477 19 11 19Z"/>
<path fill-rule="evenodd" clip-rule="evenodd" d="M20 1C21.6569 1 23 2.34315 23 4V20C23 21.6569 21.6569 23 20 23H4C2.34315 23 1 21.6569 1 20V4C1 2.34315 2.34315 1 4 1H20ZM20 3C20.5523 3 21 3.44772 21 4V20C21 20.5523 20.5523 21 20 21H4C3.44772 21 3 20.5523 3 20V4C3 3.44772 3.44772 3 4 3H20Z"/>
</symbol><symbol id="mail-plus" viewBox="0 0 24 24" xmlns="http://www.w3.org/2000/svg"><path d="M24,10v9a5.006,5.006,0,0,1-5,5H5a5.006,5.006,0,0,1-5-5V8A5.006,5.006,0,0,1,5,3h8a1,1,0,0,1,0,2H5A2.99,2.99,0,0,0,2.361,6.6l7.517,7.518a3.008,3.008,0,0,0,4.244,0L17.943,10.3a1,1,0,0,1,1.414,1.414l-3.821,3.822a5.008,5.008,0,0,1-7.072,0L2,9.071V19a3,3,0,0,0,3,3H19a3,3,0,0,0,3-3V10A1,1,0,0,1,24,10ZM17,5h2V7a1,1,0,0,0,2,0V5h2a1,1,0,0,0,0-2H21V1a1,1,0,0,0-2,0V3H17A1,1,0,0,0,17,5Z"/></symbol><symbol id="phone-call" viewBox="0 0 24 24" xmlns="http://www.w3.org/2000/svg"><path d="M13,1a1,1,0,0,1,1-1A10.011,10.011,0,0,1,24,10a1,1,0,0,1-2,0,8.009,8.009,0,0,0-8-8A1,1,0,0,1,13,1Zm1,5a4,4,0,0,1,4,4,1,1,0,0,0,2,0,6.006,6.006,0,0,0-6-6,1,1,0,0,0,0,2Zm9.093,10.739a3.1,3.1,0,0,1,0,4.378l-.91,1.049c-8.19,7.841-28.12-12.084-20.4-20.3l1.15-1A3.081,3.081,0,0,1,7.26.906c.031.031,1.884,2.438,1.884,2.438a3.1,3.1,0,0,1-.007,4.282L7.979,9.082a12.781,12.781,0,0,0,6.931,6.945l1.465-1.165a3.1,3.1,0,0,1,4.281-.006S23.062,16.708,23.093,16.739Zm-1.376,1.454s-2.393-1.841-2.424-1.872a1.1,1.1,0,0,0-1.549,0c-.027.028-2.044,1.635-2.044,1.635a1,1,0,0,1-.979.152A15.009,15.009,0,0,1,5.9,9.3a1,1,0,0,1,.145-1S7.652,6.282,7.679,6.256a1.1,1.1,0,0,0,0-1.549c-.031-.03-1.872-2.425-1.872-2.425a1.1,1.1,0,0,0-1.51.039l-1.15,1C-2.495,10.105,14.776,26.418,20.721,20.8l.911-1.05A1.121,1.121,0,0,0,21.717,18.193Z"/></symbol><symbol id="telegram" viewBox="0 0 24 24" xml:space="preserve" xmlns="http://www.w3.org/2000/svg">
<g id="iArtboard">
	<path d="M12,0C5.373,0,0,5.373,0,12s5.373,12,12,12s12-5.373,12-12S18.627,0,12,0z    M17.562,8.161c-0.18,1.897-0.962,6.502-1.359,8.627c-0.168,0.9-0.5,1.201-0.82,1.23c-0.697,0.064-1.226-0.461-1.901-0.903   c-1.056-0.692-1.653-1.123-2.678-1.799c-1.185-0.781-0.417-1.21,0.258-1.911c0.177-0.184,3.247-2.977,3.307-3.23   c0.007-0.032,0.015-0.15-0.056-0.212s-0.174-0.041-0.248-0.024c-0.106,0.024-1.793,1.139-5.062,3.345   c-0.479,0.329-0.913,0.489-1.302,0.481c-0.428-0.009-1.252-0.242-1.865-0.442c-0.751-0.244-1.349-0.374-1.297-0.788   c0.027-0.216,0.324-0.437,0.892-0.663c3.498-1.524,5.831-2.529,6.998-3.015c3.333-1.386,4.025-1.627,4.477-1.635   C17.472,7.214,17.608,7.681,17.562,8.161z"/>
</g>















</symbol><symbol viewBox="0 0 50 50" id="upwork" xmlns="http://www.w3.org/2000/svg"><path d="M 1 9 C 0.448 9 0 9.448 0 10 L 0 24.115234 C 0 30.276234 4.6829844 35.631469 10.833984 35.980469 C 16.730984 36.314469 21.747875 32.176391 22.796875 26.650391 C 23.366875 27.420391 23.94625 28.135969 24.53125 28.792969 L 21.001953 43.771484 C 20.932953 44.069484 21.002406 44.380094 21.191406 44.621094 C 21.382406 44.859094 21.670563 45 21.976562 45 L 27.095703 45 C 27.559703 45 27.959406 44.687328 28.066406 44.236328 C 28.687406 41.615328 29.660969 37.508156 30.542969 33.785156 L 31.453125 34.3125 C 33.618125 35.4335 35.815 36 38 36 C 45.192 36 50.926 29.641 49.875 22.25 C 49.179 17.354 45.414078 13.318344 40.580078 12.277344 C 34.951078 11.064344 29.525359 13.949141 27.193359 18.744141 C 27.193359 18.744141 26.934562 19.318578 26.726562 19.892578 C 25.076563 17.046578 24.107609 14.094078 23.599609 11.955078 C 23.414609 11.175078 23.137469 9.762875 23.105469 9.671875 C 22.966469 9.268875 22.589109 9 22.162109 9 L 17 9 C 16.448 9 16 9.448 16 10 L 16 24.300781 C 16 26.649781 14.287219 28.750516 11.949219 28.978516 C 9.2672187 29.240516 7 27.13 7 24.5 L 7 10 C 7 9.448 6.552 9 6 9 L 1 9 z M 38 19 C 40.757 19 43 21.243 43 24 C 43 26.757 40.757 29 38 29 C 35.775 29 33.713531 27.658281 32.269531 26.488281 C 32.796531 24.263281 33.15025 22.773047 33.15625 22.748047 C 33.72425 20.541047 35.717 19 38 19 z"/></symbol><symbol id="whatsapp" viewBox="0 0 24 24" xml:space="preserve" xmlns="http://www.w3.org/2000/svg">
<g id="kWA_Logo">
	<g>
		<path d="M20.463,3.488C18.217,1.24,15.231,0.001,12.05,0    C5.495,0,0.16,5.334,0.157,11.892c-0.001,2.096,0.547,4.142,1.588,5.946L0.057,24l6.304-1.654    c1.737,0.948,3.693,1.447,5.683,1.448h0.005c6.554,0,11.89-5.335,11.893-11.893C23.944,8.724,22.708,5.735,20.463,3.488z     M12.05,21.785h-0.004c-1.774,0-3.513-0.477-5.031-1.378l-0.361-0.214l-3.741,0.981l0.999-3.648l-0.235-0.374    c-0.99-1.574-1.512-3.393-1.511-5.26c0.002-5.45,4.437-9.884,9.889-9.884c2.64,0,5.122,1.03,6.988,2.898    c1.866,1.869,2.893,4.352,2.892,6.993C21.932,17.351,17.498,21.785,12.05,21.785z M17.472,14.382    c-0.297-0.149-1.758-0.868-2.031-0.967c-0.272-0.099-0.47-0.149-0.669,0.148s-0.767,0.967-0.941,1.166    c-0.173,0.198-0.347,0.223-0.644,0.074c-0.297-0.149-1.255-0.462-2.39-1.475c-0.883-0.788-1.48-1.761-1.653-2.059    s-0.018-0.458,0.13-0.606c0.134-0.133,0.297-0.347,0.446-0.521C9.87,9.97,9.919,9.846,10.019,9.647    c0.099-0.198,0.05-0.372-0.025-0.521C9.919,8.978,9.325,7.515,9.078,6.92c-0.241-0.58-0.486-0.501-0.669-0.51    C8.236,6.401,8.038,6.4,7.839,6.4c-0.198,0-0.52,0.074-0.792,0.372c-0.272,0.298-1.04,1.017-1.04,2.479    c0,1.463,1.065,2.876,1.213,3.074c0.148,0.198,2.095,3.2,5.076,4.487c0.709,0.306,1.263,0.489,1.694,0.626    c0.712,0.226,1.36,0.194,1.872,0.118c0.571-0.085,1.758-0.719,2.006-1.413c0.248-0.694,0.248-1.29,0.173-1.413    C17.967,14.605,17.769,14.531,17.472,14.382z"/>
	</g>
</g>















</symbol></svg>