<svg aria-hidden="true" xmlns="http://www.w3.org/2000/svg" xmlns:xlink="http://www.w3.org/1999/xlink"><symbol viewBox="0 0 67 24" id="arrow" xmlns="http://www.w3.org/2000/svg">
<path fill-rule="evenodd" clip-rule="evenodd" d="M56.5147 22.6067L66.0607 13.0607C66.6464 12.4749 66.6464 11.5252 66.0607 10.9394L56.5147 1.39347C55.9289 0.807685 54.9792 0.807685 54.3934 1.39347C53.8076 1.97926 53.8076 2.92901 54.3934 3.51479L61.3787 10.5001L-1.0968e-06 10.5001L-8.34533e-07 13.5001L61.3787 13.5001L54.3934 20.4854C53.8076 21.0711 53.8076 22.0209 54.3934 22.6067C54.9792 23.1925 55.9289 23.1925 56.5147 22.6067Z"/>
</symbol><symbol viewBox="0 0 19 20" id="phone" xmlns="http://www.w3.org/2000/svg">
<path fill-rule="evenodd" clip-rule="evenodd" d="M9.03174 10.6594C13.0208 14.6474 13.9258 10.0337 16.4656 12.5718C18.9143 15.0198 20.3216 15.5102 17.2192 18.6117C16.8306 18.924 14.3616 22.6813 5.6846 14.0067C-2.99348 5.33101 0.761585 2.85946 1.07397 2.47096C4.18387 -0.639143 4.66586 0.776395 7.11449 3.22434C9.65436 5.76351 5.04266 6.67143 9.03174 10.6594Z"/>
</symbol></svg>